{
	"asset":{
		"generator":"Khronos glTF Blender I/O v4.5.48",
		"version":"2.0"
	},
	"extensionsUsed":[
		"KHR_materials_specular",
		"KHR_materials_ior"
	],
	"scene":0,
	"scenes":[
		{
			"name":"Scene",
			"nodes":[
				4
			]
		}
	],
	"nodes":[
		{
			"mesh":0,
			"name":"Platano-Tree_leafs Platano_0",
			"scale":[
				0.09999999403953552,
				0.09999998658895493,
				0.09999998658895493
			]
		},
		{
			"mesh":1,
			"name":"Platano-Tree_leafs Platano_0.001",
			"scale":[
				0.09999999403953552,
				0.09999998658895493,
				0.09999998658895493
			]
		},
		{
			"mesh":2,
			"name":"Platano-Tree_Platano Trunk_0",
			"scale":[
				0.09999999403953552,
				0.09999998658895493,
				0.09999998658895493
			]
		},
		{
			"mesh":3,
			"name":"Platano-Tree_treetop platano_0",
			"scale":[
				0.09999999403953552,
				0.09999998658895493,
				0.09999998658895493
			]
		},
		{
			"children":[
				0,
				1,
				2,
				3
			],
			"name":"RootNode",
			"scale":[
				0.10000000149011612,
				0.10000000149011612,
				0.10000000149011612
			]
		}
	],
	"materials":[
		{
			"alphaMode":"BLEND",
			"doubleSided":true,
			"extensions":{
				"KHR_materials_specular":{
					"specularColorFactor":[
						0.09899281710386276,
						0.09899281710386276,
						0.09899281710386276
					]
				},
				"KHR_materials_ior":{
					"ior":1000
				}
			},
			"name":"leafs_Platano",
			"normalTexture":{
				"index":0
			},
			"pbrMetallicRoughness":{
				"baseColorTexture":{
					"index":1
				},
				"metallicFactor":0,
				"roughnessFactor":0.7550830245018005
			}
		},
		{
			"doubleSided":true,
			"extensions":{
				"KHR_materials_specular":{
					"specularColorFactor":[
						0.0,
						0.0,
						0.0
					]
				},
				"KHR_materials_ior":{
					"ior":1000
				}
			},
			"name":"Platano_Trunk",
			"normalTexture":{
				"index":2
			},
			"pbrMetallicRoughness":{
				"baseColorTexture":{
					"index":3
				},
				"metallicFactor":0,
				"roughnessFactor":0.6000000238418579
			}
		},
		{
			"alphaMode":"BLEND",
			"doubleSided":true,
			"extensions":{
				"KHR_materials_specular":{
					"specularColorFactor":[
						0.1537143737077713,
						0.1537143737077713,
						0.1537143737077713
					]
				},
				"KHR_materials_ior":{
					"ior":1000
				}
			},
			"name":"treetop_platano",
			"normalTexture":{
				"index":4
			},
			"pbrMetallicRoughness":{
				"baseColorTexture":{
					"index":5
				},
				"metallicFactor":0,
				"roughnessFactor":0.8219649195671082
			}
		}
	],
	"meshes":[
		{
			"name":"Platano-Tree_leafs Platano_0",
			"primitives":[
				{
					"attributes":{
						"POSITION":0,
						"NORMAL":1,
						"TEXCOORD_0":2,
						"TEXCOORD_1":3,
						"COLOR_0":4
					},
					"indices":5,
					"material":0
				}
			]
		},
		{
			"name":"Platano-Tree_leafs Platano_0.001",
			"primitives":[
				{
					"attributes":{
						"POSITION":6,
						"NORMAL":7,
						"TEXCOORD_0":8,
						"TEXCOORD_1":9,
						"COLOR_0":10
					},
					"indices":11,
					"material":0
				}
			]
		},
		{
			"name":"Platano-Tree_Platano Trunk_0",
			"primitives":[
				{
					"attributes":{
						"POSITION":12,
						"NORMAL":13,
						"TEXCOORD_0":14,
						"TEXCOORD_1":15,
						"COLOR_0":16
					},
					"indices":17,
					"material":1
				}
			]
		},
		{
			"name":"Platano-Tree_treetop platano_0",
			"primitives":[
				{
					"attributes":{
						"POSITION":18,
						"NORMAL":19,
						"TEXCOORD_0":20,
						"TEXCOORD_1":21,
						"COLOR_0":22
					},
					"indices":23,
					"material":2
				}
			]
		}
	],
	"textures":[
		{
			"sampler":0,
			"source":0
		},
		{
			"sampler":0,
			"source":1
		},
		{
			"sampler":0,
			"source":2
		},
		{
			"sampler":0,
			"source":3
		},
		{
			"sampler":0,
			"source":4
		},
		{
			"sampler":0,
			"source":5
		}
	],
	"images":[
		{
			"mimeType":"image/png",
			"name":"leafs_Platano_normal.png",
			"uri":"textures/leafs_Platano_normal.png"
		},
		{
			"mimeType":"image/png",
			"name":"leafs_Platano_diffuse.png",
			"uri":"textures/leafs_Platano_diffuse.png"
		},
		{
			"mimeType":"image/png",
			"name":"Platano_Trunk_normal.png",
			"uri":"textures/Platano_Trunk_normal.png"
		},
		{
			"mimeType":"image/jpeg",
			"name":"Platano_Trunk_diffuse.jpeg",
			"uri":"textures/Platano_Trunk_diffuse.jpeg"
		},
		{
			"mimeType":"image/png",
			"name":"treetop_platano_normal.png",
			"uri":"textures/treetop_platano_normal.png"
		},
		{
			"mimeType":"image/png",
			"name":"treetop_platano_diffuse.png",
			"uri":"textures/treetop_platano_diffuse.png"
		}
	],
	"accessors":[
		{
			"bufferView":0,
			"componentType":5126,
			"count":66773,
			"max":[
				172.7587890625,
				639.4419555664062,
				183.61302185058594
			],
			"min":[
				-165.46435546875,
				197.03298950195312,
				-166.88780212402344
			],
			"type":"VEC3"
		},
		{
			"bufferView":1,
			"componentType":5126,
			"count":66773,
			"type":"VEC3"
		},
		{
			"bufferView":2,
			"componentType":5126,
			"count":66773,
			"type":"VEC2"
		},
		{
			"bufferView":3,
			"componentType":5126,
			"count":66773,
			"type":"VEC2"
		},
		{
			"bufferView":4,
			"componentType":5123,
			"count":66773,
			"normalized":true,
			"type":"VEC4"
		},
		{
			"bufferView":5,
			"componentType":5125,
			"count":211725,
			"type":"SCALAR"
		},
		{
			"bufferView":6,
			"componentType":5126,
			"count":29134,
			"max":[
				186.0891876220703,
				482.6151428222656,
				196.9737548828125
			],
			"min":[
				-141.41650390625,
				225.78794860839844,
				-167.68763732910156
			],
			"type":"VEC3"
		},
		{
			"bufferView":7,
			"componentType":5126,
			"count":29134,
			"type":"VEC3"
		},
		{
			"bufferView":8,
			"componentType":5126,
			"count":29134,
			"type":"VEC2"
		},
		{
			"bufferView":9,
			"componentType":5126,
			"count":29134,
			"type":"VEC2"
		},
		{
			"bufferView":10,
			"componentType":5123,
			"count":29134,
			"normalized":true,
			"type":"VEC4"
		},
		{
			"bufferView":11,
			"componentType":5123,
			"count":94029,
			"type":"SCALAR"
		},
		{
			"bufferView":12,
			"componentType":5126,
			"count":20490,
			"max":[
				160.7550811767578,
				625.6634521484375,
				157.70263671875
			],
			"min":[
				-153.8837127685547,
				-6.399999618530273,
				-137.21363830566406
			],
			"type":"VEC3"
		},
		{
			"bufferView":13,
			"componentType":5126,
			"count":20490,
			"type":"VEC3"
		},
		{
			"bufferView":14,
			"componentType":5126,
			"count":20490,
			"type":"VEC2"
		},
		{
			"bufferView":15,
			"componentType":5126,
			"count":20490,
			"type":"VEC2"
		},
		{
			"bufferView":16,
			"componentType":5126,
			"count":20490,
			"type":"VEC3"
		},
		{
			"bufferView":17,
			"componentType":5123,
			"count":97548,
			"type":"SCALAR"
		},
		{
			"bufferView":18,
			"componentType":5126,
			"count":5405,
			"max":[
				169.4256134033203,
				629.4209594726562,
				177.81411743164062
			],
			"min":[
				-147.1607666015625,
				229.73667907714844,
				-150.92498779296875
			],
			"type":"VEC3"
		},
		{
			"bufferView":19,
			"componentType":5126,
			"count":5405,
			"type":"VEC3"
		},
		{
			"bufferView":20,
			"componentType":5126,
			"count":5405,
			"type":"VEC2"
		},
		{
			"bufferView":21,
			"componentType":5126,
			"count":5405,
			"type":"VEC2"
		},
		{
			"bufferView":22,
			"componentType":5123,
			"count":5405,
			"normalized":true,
			"type":"VEC4"
		},
		{
			"bufferView":23,
			"componentType":5123,
			"count":27456,
			"type":"SCALAR"
		}
	],
	"bufferViews":[
		{
			"buffer":0,
			"byteLength":801276,
			"byteOffset":0,
			"target":34962
		},
		{
			"buffer":0,
			"byteLength":801276,
			"byteOffset":801276,
			"target":34962
		},
		{
			"buffer":0,
			"byteLength":534184,
			"byteOffset":1602552,
			"target":34962
		},
		{
			"buffer":0,
			"byteLength":534184,
			"byteOffset":2136736,
			"target":34962
		},
		{
			"buffer":0,
			"byteLength":534184,
			"byteOffset":2670920,
			"target":34962
		},
		{
			"buffer":0,
			"byteLength":846900,
			"byteOffset":3205104,
			"target":34963
		},
		{
			"buffer":0,
			"byteLength":349608,
			"byteOffset":4052004,
			"target":34962
		},
		{
			"buffer":0,
			"byteLength":349608,
			"byteOffset":4401612,
			"target":34962
		},
		{
			"buffer":0,
			"byteLength":233072,
			"byteOffset":4751220,
			"target":34962
		},
		{
			"buffer":0,
			"byteLength":233072,
			"byteOffset":4984292,
			"target":34962
		},
		{
			"buffer":0,
			"byteLength":233072,
			"byteOffset":5217364,
			"target":34962
		},
		{
			"buffer":0,
			"byteLength":188058,
			"byteOffset":5450436,
			"target":34963
		},
		{
			"buffer":0,
			"byteLength":245880,
			"byteOffset":5638496,
			"target":34962
		},
		{
			"buffer":0,
			"byteLength":245880,
			"byteOffset":5884376,
			"target":34962
		},
		{
			"buffer":0,
			"byteLength":163920,
			"byteOffset":6130256,
			"target":34962
		},
		{
			"buffer":0,
			"byteLength":163920,
			"byteOffset":6294176,
			"target":34962
		},
		{
			"buffer":0,
			"byteLength":245880,
			"byteOffset":6458096,
			"target":34962
		},
		{
			"buffer":0,
			"byteLength":195096,
			"byteOffset":6703976,
			"target":34963
		},
		{
			"buffer":0,
			"byteLength":64860,
			"byteOffset":6899072,
			"target":34962
		},
		{
			"buffer":0,
			"byteLength":64860,
			"byteOffset":6963932,
			"target":34962
		},
		{
			"buffer":0,
			"byteLength":43240,
			"byteOffset":7028792,
			"target":34962
		},
		{
			"buffer":0,
			"byteLength":43240,
			"byteOffset":7072032,
			"target":34962
		},
		{
			"buffer":0,
			"byteLength":43240,
			"byteOffset":7115272,
			"target":34962
		},
		{
			"buffer":0,
			"byteLength":54912,
			"byteOffset":7158512,
			"target":34963
		}
	],
	"samplers":[
		{
			"magFilter":9729,
			"minFilter":9987
		}
	],
	"buffers":[
		{
			"byteLength":7213424,
			"uri":"Tree.bin"
		}
	]
}
