{
	"asset":{
		"generator":"Khronos glTF Blender I/O v4.5.49",
		"version":"2.0"
	},
	"scene":0,
	"scenes":[
		{
			"name":"Scene",
			"nodes":[
				2
			]
		}
	],
	"nodes":[
		{
			"mesh":0,
			"name":"Bark"
		},
		{
			"mesh":1,
			"name":"Leaves"
		},
		{
			"children":[
				0,
				1
			],
			"name":"Tree"
		}
	],
	"materials":[
		{
			"name":"Bark",
			"normalTexture":{
				"index":0
			},
			"pbrMetallicRoughness":{
				"baseColorTexture":{
					"index":1
				},
				"metallicFactor":0,
				"metallicRoughnessTexture":{
					"index":2
				}
			}
		},
		{
			"alphaCutoff":0.22740767896175385,
			"alphaMode":"MASK",
			"doubleSided":true,
			"name":"Leaves",
			"normalTexture":{
				"index":3
			},
			"pbrMetallicRoughness":{
				"baseColorTexture":{
					"index":4
				},
				"metallicFactor":0,
				"metallicRoughnessTexture":{
					"index":5
				}
			}
		}
	],
	"meshes":[
		{
			"name":"Bark",
			"primitives":[
				{
					"attributes":{
						"POSITION":0,
						"NORMAL":1,
						"TEXCOORD_0":2,
						"COLOR_0":3
					},
					"indices":4,
					"material":0
				}
			]
		},
		{
			"name":"Leaves",
			"primitives":[
				{
					"attributes":{
						"POSITION":5,
						"NORMAL":6,
						"TEXCOORD_0":7,
						"COLOR_0":8
					},
					"indices":9,
					"material":1
				}
			]
		}
	],
	"textures":[
		{
			"sampler":0,
			"source":0
		},
		{
			"sampler":0,
			"source":1
		},
		{
			"sampler":0,
			"source":2
		},
		{
			"sampler":0,
			"source":3
		},
		{
			"sampler":0,
			"source":4
		},
		{
			"sampler":0,
			"source":5
		}
	],
	"images":[
		{
			"mimeType":"image/png",
			"name":"Tree_0Mat_normal.png",
			"uri":"textures/Tree_0Mat_normal.png"
		},
		{
			"mimeType":"image/png",
			"name":"Tree_0Mat_baseColor.png",
			"uri":"textures/Tree_0Mat_baseColor.png"
		},
		{
			"mimeType":"image/png",
			"name":"Tree_0Mat_metallicRoughness.png",
			"uri":"textures/Tree_0Mat_metallicRoughness.png"
		},
		{
			"mimeType":"image/png",
			"name":"Tree_1Mat_normal.png",
			"uri":"textures/Tree_1Mat_normal.png"
		},
		{
			"mimeType":"image/png",
			"name":"Tree_1Mat_baseColor.png",
			"uri":"textures/Tree_1Mat_baseColor.png"
		},
		{
			"mimeType":"image/png",
			"name":"Tree_1Mat_metallicRoughness.png",
			"uri":"textures/Tree_1Mat_metallicRoughness.png"
		}
	],
	"accessors":[
		{
			"bufferView":0,
			"componentType":5126,
			"count":5423,
			"max":[
				1.3599326610565186,
				3.5395383834838867,
				1.1827694177627563
			],
			"min":[
				-1.1171092987060547,
				0,
				-1.0912213325500488
			],
			"type":"VEC3"
		},
		{
			"bufferView":1,
			"componentType":5126,
			"count":5423,
			"type":"VEC3"
		},
		{
			"bufferView":2,
			"componentType":5126,
			"count":5423,
			"type":"VEC2"
		},
		{
			"bufferView":3,
			"componentType":5126,
			"count":5423,
			"type":"VEC3"
		},
		{
			"bufferView":4,
			"componentType":5123,
			"count":13011,
			"type":"SCALAR"
		},
		{
			"bufferView":5,
			"componentType":5126,
			"count":3360,
			"max":[
				1.5868395566940308,
				3.804513454437256,
				1.4007333517074585
			],
			"min":[
				-1.3081458806991577,
				0.8637244701385498,
				-1.2793842554092407
			],
			"type":"VEC3"
		},
		{
			"bufferView":6,
			"componentType":5126,
			"count":3360,
			"type":"VEC3"
		},
		{
			"bufferView":7,
			"componentType":5126,
			"count":3360,
			"type":"VEC2"
		},
		{
			"bufferView":8,
			"componentType":5123,
			"count":3360,
			"normalized":true,
			"type":"VEC4"
		},
		{
			"bufferView":9,
			"componentType":5123,
			"count":5040,
			"type":"SCALAR"
		}
	],
	"bufferViews":[
		{
			"buffer":0,
			"byteLength":65076,
			"byteOffset":0,
			"target":34962
		},
		{
			"buffer":0,
			"byteLength":65076,
			"byteOffset":65076,
			"target":34962
		},
		{
			"buffer":0,
			"byteLength":43384,
			"byteOffset":130152,
			"target":34962
		},
		{
			"buffer":0,
			"byteLength":65076,
			"byteOffset":173536,
			"target":34962
		},
		{
			"buffer":0,
			"byteLength":26022,
			"byteOffset":238612,
			"target":34963
		},
		{
			"buffer":0,
			"byteLength":40320,
			"byteOffset":264636,
			"target":34962
		},
		{
			"buffer":0,
			"byteLength":40320,
			"byteOffset":304956,
			"target":34962
		},
		{
			"buffer":0,
			"byteLength":26880,
			"byteOffset":345276,
			"target":34962
		},
		{
			"buffer":0,
			"byteLength":26880,
			"byteOffset":372156,
			"target":34962
		},
		{
			"buffer":0,
			"byteLength":10080,
			"byteOffset":399036,
			"target":34963
		}
	],
	"samplers":[
		{
			"magFilter":9729,
			"minFilter":9987
		}
	],
	"buffers":[
		{
			"byteLength":409116,
			"uri":"scene.bin"
		}
	]
}
