{
	"asset":{
		"generator":"Khronos glTF Blender I/O v4.5.48",
		"version":"2.0"
	},
	"scene":0,
	"scenes":[
		{
			"name":"Scene",
			"nodes":[
				2
			]
		}
	],
	"nodes":[
		{
			"mesh":0,
			"name":"Bark",
			"rotation":[
				0.70710688829422,
				0,
				0,
				0.7071066498756409
			]
		},
		{
			"mesh":1,
			"name":"Leaves",
			"rotation":[
				0.70710688829422,
				0,
				0,
				0.7071066498756409
			]
		},
		{
			"children":[
				0,
				1
			],
			"name":"Tree",
			"rotation":[
				-0.70710688829422,
				0,
				0,
				0.7071066498756409
			],
			"scale":[
				0.009999999776482582,
				0.010000000707805157,
				0.010000000707805157
			]
		}
	],
	"materials":[
		{
			"name":"Bark",
			"normalTexture":{
				"index":0
			},
			"pbrMetallicRoughness":{
				"baseColorTexture":{
					"index":1
				},
				"metallicFactor":0,
				"metallicRoughnessTexture":{
					"index":2
				}
			}
		},
		{
			"alphaCutoff":0.22740767896175385,
			"alphaMode":"MASK",
			"doubleSided":true,
			"name":"Leaves",
			"normalTexture":{
				"index":3
			},
			"pbrMetallicRoughness":{
				"baseColorTexture":{
					"index":4
				},
				"metallicFactor":0,
				"metallicRoughnessTexture":{
					"index":5
				}
			}
		}
	],
	"meshes":[
		{
			"name":"Bark",
			"primitives":[
				{
					"attributes":{
						"POSITION":0,
						"NORMAL":1,
						"TEXCOORD_0":2,
						"COLOR_0":3
					},
					"indices":4,
					"material":0
				}
			]
		},
		{
			"name":"Leaves",
			"primitives":[
				{
					"attributes":{
						"POSITION":5,
						"NORMAL":6,
						"TEXCOORD_0":7,
						"COLOR_0":8
					},
					"indices":9,
					"material":1
				}
			]
		}
	],
	"textures":[
		{
			"sampler":0,
			"source":0
		},
		{
			"sampler":0,
			"source":1
		},
		{
			"sampler":0,
			"source":2
		},
		{
			"sampler":0,
			"source":3
		},
		{
			"sampler":0,
			"source":4
		},
		{
			"sampler":0,
			"source":5
		}
	],
	"images":[
		{
			"mimeType":"image/png",
			"name":"Tree_0Mat_normal.png",
			"uri":"textures/Tree_0Mat_normal.png"
		},
		{
			"mimeType":"image/png",
			"name":"Tree_0Mat_baseColor.png",
			"uri":"textures/Tree_0Mat_baseColor.png"
		},
		{
			"mimeType":"image/png",
			"name":"Tree_0Mat_metallicRoughness.png",
			"uri":"textures/Tree_0Mat_metallicRoughness.png"
		},
		{
			"mimeType":"image/png",
			"name":"Tree_1Mat_normal.png",
			"uri":"textures/Tree_1Mat_normal.png"
		},
		{
			"mimeType":"image/png",
			"name":"Tree_1Mat_baseColor.png",
			"uri":"textures/Tree_1Mat_baseColor.png"
		},
		{
			"mimeType":"image/png",
			"name":"Tree_1Mat_metallicRoughness.png",
			"uri":"textures/Tree_1Mat_metallicRoughness.png"
		}
	],
	"accessors":[
		{
			"bufferView":0,
			"componentType":5126,
			"count":5412,
			"max":[
				135.99327087402344,
				353.9539794921875,
				118.27699279785156
			],
			"min":[
				-111.71092987060547,
				0,
				-109.12217712402344
			],
			"type":"VEC3"
		},
		{
			"bufferView":1,
			"componentType":5126,
			"count":5412,
			"type":"VEC3"
		},
		{
			"bufferView":2,
			"componentType":5126,
			"count":5412,
			"type":"VEC2"
		},
		{
			"bufferView":3,
			"componentType":5123,
			"count":5412,
			"normalized":true,
			"type":"VEC4"
		},
		{
			"bufferView":4,
			"componentType":5123,
			"count":13011,
			"type":"SCALAR"
		},
		{
			"bufferView":5,
			"componentType":5126,
			"count":3360,
			"max":[
				158.6839599609375,
				380.4515075683594,
				140.07339477539062
			],
			"min":[
				-130.81459045410156,
				86.37248229980469,
				-127.9384765625
			],
			"type":"VEC3"
		},
		{
			"bufferView":6,
			"componentType":5126,
			"count":3360,
			"type":"VEC3"
		},
		{
			"bufferView":7,
			"componentType":5126,
			"count":3360,
			"type":"VEC2"
		},
		{
			"bufferView":8,
			"componentType":5123,
			"count":3360,
			"normalized":true,
			"type":"VEC4"
		},
		{
			"bufferView":9,
			"componentType":5123,
			"count":5040,
			"type":"SCALAR"
		}
	],
	"bufferViews":[
		{
			"buffer":0,
			"byteLength":64944,
			"byteOffset":0,
			"target":34962
		},
		{
			"buffer":0,
			"byteLength":64944,
			"byteOffset":64944,
			"target":34962
		},
		{
			"buffer":0,
			"byteLength":43296,
			"byteOffset":129888,
			"target":34962
		},
		{
			"buffer":0,
			"byteLength":43296,
			"byteOffset":173184,
			"target":34962
		},
		{
			"buffer":0,
			"byteLength":26022,
			"byteOffset":216480,
			"target":34963
		},
		{
			"buffer":0,
			"byteLength":40320,
			"byteOffset":242504,
			"target":34962
		},
		{
			"buffer":0,
			"byteLength":40320,
			"byteOffset":282824,
			"target":34962
		},
		{
			"buffer":0,
			"byteLength":26880,
			"byteOffset":323144,
			"target":34962
		},
		{
			"buffer":0,
			"byteLength":26880,
			"byteOffset":350024,
			"target":34962
		},
		{
			"buffer":0,
			"byteLength":10080,
			"byteOffset":376904,
			"target":34963
		}
	],
	"samplers":[
		{
			"magFilter":9729,
			"minFilter":9987
		}
	],
	"buffers":[
		{
			"byteLength":386984,
			"uri":"scene.bin"
		}
	]
}
