{
  "accessors": [
    {
      "bufferView": 2,
      "componentType": 5126,
      "count": 1102,
      "max": [
        2.1802263259887695,
        7.0062761306762695,
        10.061637878417969
      ],
      "min": [
        -6.815885543823242,
        -2.9368724822998047,
        -0.15756234526634216
      ],
      "type": "VEC3"
    },
    {
      "bufferView": 2,
      "byteOffset": 13224,
      "componentType": 5126,
      "count": 1102,
      "max": [
        1.0,
        1.0,
        1.0
      ],
      "min": [
        -1.0,
        -1.0,
        -1.0
      ],
      "type": "VEC3"
    },
    {
      "bufferView": 1,
      "componentType": 5126,
      "count": 1102,
      "max": [
        1.5522114038467407,
        0.49432408809661865
      ],
      "min": [
        -0.5743194818496704,
        0.006194323301315308
      ],
      "type": "VEC2"
    },
    {
      "bufferView": 0,
      "componentType": 5125,
      "count": 1857,
      "type": "SCALAR"
    },
    {
      "bufferView": 2,
      "byteOffset": 26448,
      "componentType": 5126,
      "count": 1786,
      "max": [
        4.794341087341309,
        2.2754204273223877,
        7.937905311584473
      ],
      "min": [
        -5.308197498321533,
        -3.1031930446624756,
        -0.0015721321105957031
      ],
      "type": "VEC3"
    },
    {
      "bufferView": 2,
      "byteOffset": 47880,
      "componentType": 5126,
      "count": 1786,
      "max": [
        1.0,
        1.0,
        1.0
      ],
      "min": [
        -1.0,
        -1.0,
        -1.0
      ],
      "type": "VEC3"
    },
    {
      "bufferView": 1,
      "byteOffset": 8816,
      "componentType": 5126,
      "count": 1786,
      "max": [
        1.280651569366455,
        0.9936978220939636
      ],
      "min": [
        -0.41496020555496216,
        0.01839754357933998
      ],
      "type": "VEC2"
    },
    {
      "bufferView": 0,
      "byteOffset": 7428,
      "componentType": 5125,
      "count": 3195,
      "type": "SCALAR"
    },
    {
      "bufferView": 2,
      "byteOffset": 69312,
      "componentType": 5126,
      "count": 560,
      "max": [
        10.362374305725098,
        8.348165512084961,
        4.907528877258301
      ],
      "min": [
        -11.495081901550293,
        -5.494137763977051,
        -0.21808576583862305
      ],
      "type": "VEC3"
    },
    {
      "bufferView": 2,
      "byteOffset": 76032,
      "componentType": 5126,
      "count": 560,
      "max": [
        1.0,
        1.0,
        1.0
      ],
      "min": [
        -1.0,
        -1.0,
        -1.0
      ],
      "type": "VEC3"
    },
    {
      "bufferView": 1,
      "byteOffset": 23104,
      "componentType": 5126,
      "count": 560,
      "max": [
        1.3433341979980469,
        0.9952008724212646
      ],
      "min": [
        -0.37426573038101196,
        0.006924942135810852
      ],
      "type": "VEC2"
    },
    {
      "bufferView": 0,
      "byteOffset": 20208,
      "componentType": 5125,
      "count": 864,
      "type": "SCALAR"
    },
    {
      "bufferView": 2,
      "byteOffset": 82752,
      "componentType": 5126,
      "count": 6669,
      "max": [
        13.774751663208008,
        6.318390846252441,
        22.65984344482422
      ],
      "min": [
        -12.791311264038086,
        -8.90854549407959,
        -0.21478009223937988
      ],
      "type": "VEC3"
    },
    {
      "bufferView": 2,
      "byteOffset": 162780,
      "componentType": 5126,
      "count": 6669,
      "max": [
        1.0,
        1.0,
        1.0
      ],
      "min": [
        -1.0,
        -1.0,
        -1.0
      ],
      "type": "VEC3"
    },
    {
      "bufferView": 1,
      "byteOffset": 27584,
      "componentType": 5126,
      "count": 6669,
      "max": [
        1.7384486198425293,
        1.0017180442810059
      ],
      "min": [
        -3.637028217315674,
        0.0
      ],
      "type": "VEC2"
    },
    {
      "bufferView": 0,
      "byteOffset": 23664,
      "componentType": 5125,
      "count": 15129,
      "type": "SCALAR"
    },
    {
      "bufferView": 2,
      "byteOffset": 242808,
      "componentType": 5126,
      "count": 4391,
      "max": [
        12.791325569152832,
        8.55775260925293,
        22.627159118652344
      ],
      "min": [
        -13.194138526916504,
        -5.407101631164551,
        -0.2147873193025589
      ],
      "type": "VEC3"
    },
    {
      "bufferView": 2,
      "byteOffset": 295500,
      "componentType": 5126,
      "count": 4391,
      "max": [
        1.0,
        1.0,
        1.0
      ],
      "min": [
        -1.0,
        -1.0,
        -1.0
      ],
      "type": "VEC3"
    },
    {
      "bufferView": 1,
      "byteOffset": 80936,
      "componentType": 5126,
      "count": 4391,
      "max": [
        2.610584020614624,
        0.4957275390625
      ],
      "min": [
        -1.6025428771972656,
        0.0
      ],
      "type": "VEC2"
    },
    {
      "bufferView": 0,
      "byteOffset": 84180,
      "componentType": 5125,
      "count": 7413,
      "type": "SCALAR"
    }
  ],
  "asset": {
    "extras": {
      "author": "Şafak Binen (https://sketchfab.com/sfkbnn)",
      "license": "CC-BY-4.0 (http://creativecommons.org/licenses/by/4.0/)",
      "source": "https://sketchfab.com/3d-models/construction-pack-low-poly-b17b94aa9c30435e88ca0c090a6cfed7",
      "title": "Construction Pack (Low Poly)"
    },
    "generator": "Sketchfab-15.14.0",
    "version": "2.0"
  },
  "bufferViews": [
    {
      "buffer": 0,
      "byteLength": 113832,
      "name": "floatBufferViews",
      "target": 34963
    },
    {
      "buffer": 0,
      "byteLength": 116064,
      "byteOffset": 113832,
      "byteStride": 8,
      "name": "floatBufferViews",
      "target": 34962
    },
    {
      "buffer": 0,
      "byteLength": 348192,
      "byteOffset": 229896,
      "byteStride": 12,
      "name": "floatBufferViews",
      "target": 34962
    }
  ],
  "buffers": [
    {
      "byteLength": 578088,
      "uri": "scene.bin"
    }
  ],
  "extensionsUsed": [
    "KHR_materials_specular"
  ],
  "images": [
    {
      "uri": "textures/ConstructionPack_baseColor.png"
    }
  ],
  "materials": [
    {
      "doubleSided": true,
      "extensions": {
        "KHR_materials_specular": {
          "specularColorFactor": [
            1.0,
            1.0,
            1.0
          ],
          "specularFactor": 0.0
        }
      },
      "name": "ConstructionPack",
      "pbrMetallicRoughness": {
        "baseColorTexture": {
          "index": 0
        },
        "metallicFactor": 0.0,
        "roughnessFactor": 0.8211145618000169
      }
    }
  ],
  "meshes": [
    {
      "name": "Construction4_ConstructionPack_0",
      "primitives": [
        {
          "attributes": {
            "NORMAL": 1,
            "POSITION": 0,
            "TEXCOORD_0": 2
          },
          "indices": 3,
          "material": 0,
          "mode": 4
        }
      ]
    },
    {
      "name": "Construction1_ConstructionPack_0",
      "primitives": [
        {
          "attributes": {
            "NORMAL": 5,
            "POSITION": 4,
            "TEXCOORD_0": 6
          },
          "indices": 7,
          "material": 0,
          "mode": 4
        }
      ]
    },
    {
      "name": "Construction2_ConstructionPack_0",
      "primitives": [
        {
          "attributes": {
            "NORMAL": 9,
            "POSITION": 8,
            "TEXCOORD_0": 10
          },
          "indices": 11,
          "material": 0,
          "mode": 4
        }
      ]
    },
    {
      "name": "Construction3_ConstructionPack_0",
      "primitives": [
        {
          "attributes": {
            "NORMAL": 13,
            "POSITION": 12,
            "TEXCOORD_0": 14
          },
          "indices": 15,
          "material": 0,
          "mode": 4
        }
      ]
    },
    {
      "name": "Construction5_ConstructionPack_0",
      "primitives": [
        {
          "attributes": {
            "NORMAL": 17,
            "POSITION": 16,
            "TEXCOORD_0": 18
          },
          "indices": 19,
          "material": 0,
          "mode": 4
        }
      ]
    }
  ],
  "nodes": [
    {
      "children": [
        1
      ],
      "matrix": [
        1.0,
        0.0,
        0.0,
        0.0,
        0.0,
        2.220446049250313e-16,
        -1.0,
        0.0,
        0.0,
        1.0,
        2.220446049250313e-16,
        0.0,
        0.0,
        0.0,
        0.0,
        1.0
      ],
      "name": "Sketchfab_model"
    },
    {
      "children": [
        2
      ],
      "matrix": [
        0.009999999776482582,
        0.0,
        0.0,
        0.0,
        0.0,
        0.0,
        0.009999999776482582,
        0.0,
        0.0,
        -0.009999999776482582,
        0.0,
        0.0,
        0.0,
        0.0,
        0.0,
        1.0
      ],
      "name": "8d8863669f354a6e8e97e26a3e1219eb.fbx"
    },
    {
      "children": [
        3,
        5,
        7,
        9,
        11
      ],
      "name": "RootNode"
    },
    {
      "children": [
        4
      ],
      "matrix": [
        100.0,
        0.0,
        0.0,
        0.0,
        0.0,
        -1.629206793918314e-05,
        -99.99999999999868,
        0.0,
        0.0,
        99.99999999999868,
        -1.629206793918314e-05,
        0.0,
        2632.590576171875,
        0.0,
        262.7250061035156,
        1.0
      ],
      "name": "Construction4"
    },
    {
      "mesh": 0,
      "name": "Construction4_ConstructionPack_0"
    },
    {
      "children": [
        6
      ],
      "matrix": [
        100.0,
        0.0,
        0.0,
        0.0,
        0.0,
        -1.629206793918314e-05,
        -99.99999999999868,
        0.0,
        0.0,
        99.99999999999868,
        -1.629206793918314e-05,
        0.0,
        347.2537841796875,
        0.0,
        -46.812843322753906,
        1.0
      ],
      "name": "Construction1"
    },
    {
      "mesh": 1,
      "name": "Construction1_ConstructionPack_0"
    },
    {
      "children": [
        8
      ],
      "matrix": [
        100.0,
        0.0,
        0.0,
        0.0,
        -0.0,
        -1.629206793918314e-05,
        -99.99999999999868,
        0.0,
        0.0,
        99.99999999999868,
        -1.629206793918314e-05,
        0.0,
        -1922.02685546875,
        0.0,
        -12.79134750366211,
        1.0
      ],
      "name": "Construction2"
    },
    {
      "mesh": 2,
      "name": "Construction2_ConstructionPack_0"
    },
    {
      "children": [
        10
      ],
      "matrix": [
        100.0,
        0.0,
        0.0,
        0.0,
        0.0,
        -1.629206793918314e-05,
        -99.99999999999868,
        0.0,
        0.0,
        99.99999999999868,
        -1.629206793918314e-05,
        0.0,
        1467.8394775390625,
        0.0,
        2585.11865234375,
        1.0
      ],
      "name": "Construction3"
    },
    {
      "mesh": 3,
      "name": "Construction3_ConstructionPack_0"
    },
    {
      "children": [
        12
      ],
      "matrix": [
        100.0,
        0.0,
        0.0,
        0.0,
        -0.0,
        -1.629206793918314e-05,
        -99.99999999999868,
        0.0,
        0.0,
        99.99999999999868,
        -1.629206793918314e-05,
        0.0,
        -1997.2774658203125,
        0.0,
        2603.06005859375,
        1.0
      ],
      "name": "Construction5"
    },
    {
      "mesh": 4,
      "name": "Construction5_ConstructionPack_0"
    }
  ],
  "samplers": [
    {
      "magFilter": 9729,
      "minFilter": 9987,
      "wrapS": 10497,
      "wrapT": 10497
    }
  ],
  "scene": 0,
  "scenes": [
    {
      "name": "Sketchfab_Scene",
      "nodes": [
        0
      ]
    }
  ],
  "textures": [
    {
      "sampler": 0,
      "source": 0
    }
  ]
}
